<svg id="_09_新建项目_move" data-name="09 新建项目 move" xmlns="http://www.w3.org/2000/svg" width="15.157" height="18" viewBox="0 0 15.157 18">
  <defs>
    <style>
      .cls-1 {
        fill: #65aeff;
      }
    </style>
  </defs>
  <path id="路径_1121" data-name="路径 1121" class="cls-1" d="M683.548,64.423l-.032,2.68a1.286,1.286,0,0,0,1.286,1.3h2.682a.514.514,0,0,0,.365-.875l-3.422-3.462a.514.514,0,0,0-.879.356Z" transform="translate(-672.84 -63.913)"/>
  <path id="路径_1122" data-name="路径 1122" class="cls-1" d="M161.362,68.285a1.286,1.286,0,0,0,1.286,1.286h3.223a1.286,1.286,0,0,1,1.286,1.286V80.8a1.233,1.233,0,0,1-1.262,1.2H153.262A1.233,1.233,0,0,1,152,80.8V65.2a1.233,1.233,0,0,1,1.262-1.2h6.814a1.286,1.286,0,0,1,1.286,1.286Zm-6.085,4.87h8.6a.643.643,0,0,0,0-1.286h-8.6a.643.643,0,1,0,0,1.286Zm3.214-5.682h-3.214a.643.643,0,1,0,0,1.286h3.214a.643.643,0,0,0,0-1.286ZM155.277,76.1h8.6a.643.643,0,0,0,0-1.286h-8.6a.643.643,0,1,0,0,1.286Zm0,2.952h8.6a.643.643,0,0,0,0-1.286h-8.6a.643.643,0,1,0,0,1.286Z" transform="translate(-152 -63.998)"/>
</svg>
