<svg id="_01_leftbar_my" data-name="01 leftbar_my" xmlns="http://www.w3.org/2000/svg" width="18.468" height="18.468" viewBox="0 0 18.468 18.468">
  <defs>
    <style>
      .cls-1 {
        fill: #818990;
      }
    </style>
  </defs>
  <path id="路径_1108" data-name="路径 1108" class="cls-1" d="M128.573,256H135.5a.569.569,0,0,1,.573.573.575.575,0,0,1-.573.572h-6.925a.569.569,0,0,1-.573-.572A.575.575,0,0,1,128.573,256Z" transform="translate(-125.692 -251.383)"/>
  <path id="路径_1109" data-name="路径 1109" class="cls-1" d="M705.084,256.572m-.572,0a.573.573,0,1,0,.572-.573A.572.572,0,0,0,704.512,256.572Z" transform="translate(-691.806 -251.383)"/>
  <path id="路径_1110" data-name="路径 1110" class="cls-1" d="M16.159,0H4.617A2.309,2.309,0,0,0,2.308,2.308,2.309,2.309,0,0,0,0,4.617V16.159a2.309,2.309,0,0,0,2.308,2.308H13.851a2.309,2.309,0,0,0,2.308-2.308,2.309,2.309,0,0,0,2.308-2.308V2.308A2.309,2.309,0,0,0,16.159,0ZM15.005,16.159a1.155,1.155,0,0,1-1.154,1.154H2.308a1.155,1.155,0,0,1-1.154-1.154V8.08H15.005Zm0-9.234H1.154V4.617A1.155,1.155,0,0,1,2.308,3.463H13.851a1.155,1.155,0,0,1,1.154,1.154Zm2.308,6.925A1.155,1.155,0,0,1,16.159,15V4.617a2.309,2.309,0,0,0-2.308-2.308H3.463A1.155,1.155,0,0,1,4.617,1.154H16.159a1.155,1.155,0,0,1,1.154,1.154Z"/>
</svg>
