<svg id="_05_rleftbar_ecycle" data-name="05 rleftbar_ecycle" xmlns="http://www.w3.org/2000/svg" width="17.876" height="18.429" viewBox="0 0 17.876 18.429">
  <defs>
    <style>
      .cls-1 {
        fill: #818990;
      }
    </style>
  </defs>
  <path id="路径_1111" data-name="路径 1111" class="cls-1" d="M15.665,5.252a.826.826,0,0,0-.921.645,3.455,3.455,0,0,0-.092,1.014v8.017c0,1.382-.184,1.566-1.659,1.659H4.515c-.829,0-1.106-.276-1.2-1.2V6.635c0-.921-.276-1.382-.921-1.382s-.921.369-.921,1.382v9.123c0,1.751.921,2.58,2.672,2.672h9.491c2.027,0,2.857-.829,2.857-2.857V6.911A3.135,3.135,0,0,0,16.4,5.99.727.727,0,0,0,15.665,5.252Zm1.29-3.317a12.075,12.075,0,0,0-2.58,0,2.751,2.751,0,0,1-2.4-1.014A1.9,1.9,0,0,0,10.228,0h-2.4A2.251,2.251,0,0,0,5.805.921a2.161,2.161,0,0,1-2.027.921H1.659a2.029,2.029,0,0,0-.737.092A.987.987,0,0,0,0,2.857a.871.871,0,0,0,.921.921h3.5A2.161,2.161,0,0,0,6.45,2.857a1.992,1.992,0,0,1,2.027-.921h1.2a1.546,1.546,0,0,1,1.29.553,3.076,3.076,0,0,0,3.041,1.29h2.857a1.013,1.013,0,0,0,.921-.553.878.878,0,0,0-.829-1.29Z" transform="translate(0)"/>
  <path id="路径_1112" data-name="路径 1112" class="cls-1" d="M316.7,319.738a.9.9,0,0,0,.843.843.832.832,0,0,0,.843-.759v-5.985a2.868,2.868,0,0,0-.084-.843.81.81,0,0,0-.759-.59.678.678,0,0,0-.759.506,2.6,2.6,0,0,0-.084.843v5.4A.712.712,0,0,0,316.7,319.738Zm-3.541.759a.821.821,0,0,0,.843-.674,2.1,2.1,0,0,0,.084-.674v-5.985a.919.919,0,0,0-.927-.843.832.832,0,0,0-.843.759v6.07a1.643,1.643,0,0,0,.084.674A.738.738,0,0,0,313.163,320.5Z" transform="translate(-306.417 -306.315)"/>
</svg>
