<svg id="_04_leftbar_material" data-name="04 leftbar_material" xmlns="http://www.w3.org/2000/svg" width="16.975" height="19.384" viewBox="0 0 16.975 19.384">
  <defs>
    <style>
      .cls-1 {
        fill: #818990;
      }
    </style>
  </defs>
  <path id="leftbar_material" class="cls-1" d="M68.581,9.7l7.787-4.5a.7.7,0,0,1,.7,0l7.787,4.5a.7.7,0,0,1,.35.606V19.3a.7.7,0,0,1-.35.606l-7.787,4.5a.7.7,0,0,1-.7,0l-7.787-4.5a.7.7,0,0,1-.35-.606V10.309a.7.7,0,0,1,.35-.606Zm1.139.961a.175.175,0,0,0-.088.152V18.8a.175.175,0,0,0,.088.152l6.91,3.99a.175.175,0,0,0,.175,0l6.91-3.99A.175.175,0,0,0,83.8,18.8V10.816a.175.175,0,0,0-.088-.152l-6.91-3.99a.175.175,0,0,0-.175,0Zm6.991,3.422,5.39-3.112a.7.7,0,1,1,.7,1.212l-5.376,3.1v6.153a.7.7,0,0,1-1.4,0V15.307L70.64,12.2a.7.7,0,0,1,.7-1.212l5.371,3.1Z" transform="translate(-68.231 -5.113)"/>
</svg>
