<svg id="_02_leftbar_recent_normal" data-name="02 leftbar_recent normal" xmlns="http://www.w3.org/2000/svg" width="18.468" height="18.468" viewBox="0 0 18.468 18.468">
  <defs>
    <style>
      .cls-1 {
        fill: #818990;
      }
    </style>
  </defs>
  <path id="路径_1105" data-name="路径 1105" class="cls-1" d="M472.51,180.418l-3.924-1.385v-5.54a.745.745,0,0,0-.693-.693c-.346.115-.693.346-.693.693v5.887a.635.635,0,0,0,.346.577l4.271,1.616a.737.737,0,0,0,.923-.346A.612.612,0,0,0,472.51,180.418Z" transform="translate(-458.774 -169.684)"/>
  <path id="路径_1106" data-name="路径 1106" class="cls-1" d="M9.234,0a9.234,9.234,0,1,0,9.234,9.234A9.261,9.261,0,0,0,9.234,0ZM17.2,9.234A7.964,7.964,0,1,1,9.234,1.27,7.98,7.98,0,0,1,17.2,9.234Z"/>
</svg>
