<svg id="_10_导入本地_normal" data-name="10 导入本地 normal" xmlns="http://www.w3.org/2000/svg" width="19.508" height="18" viewBox="0 0 19.508 18">
  <defs>
    <style>
      .cls-1 {
        fill: #818990;
      }
    </style>
  </defs>
  <path id="路径_1119" data-name="路径 1119" class="cls-1" d="M1419.735,2500.11h1.661v5.432a.18.18,0,0,0,.179.179h1.345a.18.18,0,0,0,.179-.179v-5.432h1.657a.179.179,0,0,0,.141-.289l-2.511-3.176a.179.179,0,0,0-.283,0l-2.511,3.176A.179.179,0,0,0,1419.735,2500.11Z" transform="translate(-1412.492 -2493.68)"/>
  <path id="路径_1120" data-name="路径 1120" class="cls-1" d="M1384.413,2492.24v.931a.343.343,0,0,0,.346.34h1.708a.717.717,0,0,1,.73.622.689.689,0,0,1-.694.744h-9.718a.717.717,0,0,1-.73-.622.689.689,0,0,1,.694-.745h1.751a.335.335,0,0,0,.339-.332v-.946a.328.328,0,0,0-.332-.325h-3.849a2.76,2.76,0,0,1-2.787-2.733v-9.564a2.76,2.76,0,0,1,2.787-2.733h13.934a2.76,2.76,0,0,1,2.787,2.733v9.564a2.76,2.76,0,0,1-2.787,2.733h-3.841A.336.336,0,0,0,1384.413,2492.24Zm-1.715-.333h-2.143a.319.319,0,0,0-.322.316v1a.288.288,0,0,0,.29.284h2.206a.288.288,0,0,0,.291-.284v-1A.319.319,0,0,0,1382.7,2491.907Zm-8.039-13.664a1.38,1.38,0,0,0-1.393,1.366h0v9.564a1.38,1.38,0,0,0,1.393,1.366h13.934a1.38,1.38,0,0,0,1.394-1.366h0v-9.564a1.38,1.38,0,0,0-1.394-1.366h-13.934Z" transform="translate(-1371.872 -2476.877)"/>
</svg>
