<svg xmlns="http://www.w3.org/2000/svg" width="20.283" height="19.269" viewBox="0 0 20.283 19.269">
  <defs>
    <style>
      .cls-1 {
        fill: #8a929a;
      }
    </style>
  </defs>
  <path id="lingjian-2" class="cls-1" d="M84.775,83.152A1.735,1.735,0,0,0,83.092,81.6h-.038a1.576,1.576,0,0,1-1.573-1.575,1.851,1.851,0,0,1,.137-.581,1.964,1.964,0,0,0-.678-2.377l-2.4-1.339-.1-.047a1.932,1.932,0,0,0-.773-.153,2.091,2.091,0,0,0-1.489.6,2.754,2.754,0,0,1-1.3.8,2.76,2.76,0,0,1-1.3-.811,2.081,2.081,0,0,0-1.494-.62,1.979,1.979,0,0,0-.773.153l-2.5,1.368-.1.063a1.949,1.949,0,0,0-.662,2.359,1.829,1.829,0,0,1,.142.588A1.592,1.592,0,0,1,66.566,81.6h-.038a1.73,1.73,0,0,0-1.622,1.568,9.512,9.512,0,0,0,0,3.95,1.729,1.729,0,0,0,1.625,1.553h.095A1.575,1.575,0,0,1,68.2,90.248a1.776,1.776,0,0,1-.14.581,1.964,1.964,0,0,0,.665,2.368l2.366,1.332.095.045a1.9,1.9,0,0,0,.773.158,2.075,2.075,0,0,0,1.51-.635,2.885,2.885,0,0,1,1.323-.85,2.789,2.789,0,0,1,1.329.865,2.023,2.023,0,0,0,1.508.653,1.919,1.919,0,0,0,.777-.158l2.458-1.352.1-.063a1.949,1.949,0,0,0,.66-2.355,1.894,1.894,0,0,1-.14-.588,1.591,1.591,0,0,1,1.638-1.573,1.759,1.759,0,0,0,1.656-1.568,12.4,12.4,0,0,0,.205-1.967A12.582,12.582,0,0,0,84.775,83.152Zm-9.942,6.041a3.858,3.858,0,1,1,3.856-3.86A3.852,3.852,0,0,1,74.833,89.193Z" transform="translate(-64.7 -75.497)"/>
</svg>
