<svg id="_21_移动_move" data-name="21 移动 move" xmlns="http://www.w3.org/2000/svg" width="17.257" height="15.986" viewBox="0 0 17.257 15.986">
  <defs>
    <style>
      .cls-1 {
        fill: #545454;
      }

      .cls-2 {
        fill: #65aeff;
      }
    </style>
  </defs>
  <path id="路径_1268" data-name="路径 1268" class="cls-1" d="M895.8,560.618a.62.62,0,1,0,.62-.618A.619.619,0,0,0,895.8,560.618Z" transform="translate(-879.784 -551.088)"/>
  <path id="路径_1269" data-name="路径 1269" class="cls-1" d="M80.736,108.575a.619.619,0,0,0-.62.618v1.554a1.234,1.234,0,0,1-1.232,1.232H66.573a1.234,1.234,0,0,1-1.232-1.232V99.661a1.234,1.234,0,0,1,1.232-1.232h4.285l1.593,2.76a.62.62,0,0,0,.607.3h5.825a1.234,1.234,0,0,1,1.232,1.232v1.541a.62.62,0,0,0,1.24,0,.369.369,0,0,0,0-.046v-1.492a2.465,2.465,0,0,0-2.465-2.465H73.34L71.751,97.51a.562.562,0,0,0-.526-.308l0,0H66.565A2.465,2.465,0,0,0,64.1,99.665v11.056a2.465,2.465,0,0,0,2.465,2.465H78.89a2.465,2.465,0,0,0,2.465-2.465V109.24a.373.373,0,0,0,0-.046.619.619,0,0,0-.62-.618Z" transform="translate(-64.1 -97.2)"/>
  <path id="路径_1270" data-name="路径 1270" class="cls-2" d="M262.372,445.781a.62.62,0,0,0,.874,0l2.607-2.605.017-.015h0l.013-.013a.61.61,0,0,0,0-.861l-2.619-2.619a.611.611,0,0,0-.863,0l-.014.013a.61.61,0,0,0,0,.861l1.579,1.579h-7.164a.607.607,0,0,0,0,1.213h7.141l-1.573,1.575A.618.618,0,0,0,262.372,445.781Z" transform="translate(-252.501 -432.896)"/>
</svg>
