<svg xmlns="http://www.w3.org/2000/svg" width="17.219" height="16.411" viewBox="0 0 17.219 16.411">
  <defs>
    <style>
      .cls-1 {
        fill: none;
        stroke: #818990;
        stroke-linecap: round;
        stroke-linejoin: round;
        stroke-width: 1.5px;
      }
    </style>
  </defs>
  <g id="_03_leftbar_star" data-name="03 leftbar_star" transform="translate(0.762 0.75)">
    <path id="leftbar_star" class="cls-1" d="M7.836,12.684l-4.2,2.2A.6.6,0,0,1,3,14.835a.593.593,0,0,1-.238-.582L3.57,9.6.171,6.31A.594.594,0,0,1,.5,5.3l4.7-.678L7.3.387a.6.6,0,0,1,1.074,0l2.1,4.231,4.7.678A.594.594,0,0,1,15.5,6.31L12.1,9.6l.8,4.65a.593.593,0,0,1-.238.582.6.6,0,0,1-.63.045l-4.2-2.2Z" transform="translate(0.011 -0.055)"/>
  </g>
</svg>
