<svg id="_16_归档_normal" data-name="16 归档 normal" xmlns="http://www.w3.org/2000/svg" width="18.058" height="18.058" viewBox="0 0 18.058 18.058">
  <defs>
    <style>
      .cls-1 {
        fill: #818990;
      }
    </style>
  </defs>
  <path id="归档_无项目" class="cls-1" d="M45.787,54.257l-.755.91.755-1.246L53,58.495a1.352,1.352,0,0,0,1.237,0l7.212-4.537L62.2,55.2l-.755-.91.755-.91-.755,1.246-7.237-4.674a1.339,1.339,0,0,0-1.237,0l-7.187,4.6-.755-1.246Zm-.755.91a1.127,1.127,0,0,1,0-1.82l7.225-4.637a3.145,3.145,0,0,1,2.7,0l7.212,4.7a1.127,1.127,0,0,1,0,1.82l-7.212,4.624a3.145,3.145,0,0,1-2.709,0Zm-.087,1.359a1.253,1.253,0,0,0,.148,1.82l7.163,4.7a3.17,3.17,0,0,0,2.709,0l7.212-4.7a1.253,1.253,0,0,0,.087-1.82l-.148.15-7.163,4.7a3.158,3.158,0,0,1-2.709,0l-7.2-4.7Zm0,3.178a1.253,1.253,0,0,0,.148,1.82l7.163,4.637a3.17,3.17,0,0,0,2.709,0l7.212-4.7a1.253,1.253,0,0,0,.087-1.757l-.148.15-7.163,4.7a3.158,3.158,0,0,1-2.709,0l-7.2-4.7Z" transform="translate(-44.57 -48.407)"/>
</svg>
