<svg id="_23_重命名_normal" data-name="23 重命名 normal" xmlns="http://www.w3.org/2000/svg" width="15.289" height="16.46" viewBox="0 0 15.289 16.46">
  <defs>
    <style>
      .cls-1 {
        fill: #818990;
      }
    </style>
  </defs>
  <path id="路径_1135" data-name="路径 1135" class="cls-1" d="M27.325,32.536v3.318a.8.8,0,0,0,.809.781h3.42a.8.8,0,0,0,.567-.232l8.541-8.281a.763.763,0,0,0,0-1.1l-3.42-3.309a.836.836,0,0,0-.567-.232.794.794,0,0,0-.567.232l-8.551,8.272A.775.775,0,0,0,27.325,32.536Zm1.608.325.019-.019,7.724-7.491,2.277,2.212-7.742,7.5H28.933Zm-1.654,7.082H40.95a.781.781,0,1,0,0-1.561H27.279a.781.781,0,1,0,0,1.561Z" transform="translate(-26.47 -23.483)"/>
</svg>
