<svg id="_14_项目详情_move" data-name="14 项目详情 move" xmlns="http://www.w3.org/2000/svg" width="17.665" height="17.661" viewBox="0 0 17.665 17.661">
  <defs>
    <style>
      .cls-1 {
        fill: #65aeff;
      }

      .cls-2 {
        fill: #545454;
      }
    </style>
  </defs>
  <path id="xiangqing" class="cls-1" d="M4.756,14.42a.682.682,0,1,0,.679.68A.671.671,0,0,0,4.756,14.42Zm0-8.152a.682.682,0,1,0,.679.68A.671.671,0,0,0,4.756,6.269Zm0,4.076a.683.683,0,1,0,.679.68A.671.671,0,0,0,4.756,10.345Zm10.191-8.15H2.718A2.725,2.725,0,0,0,0,4.912V17.14a2.725,2.725,0,0,0,2.718,2.716H14.947a2.725,2.725,0,0,0,2.718-2.718V4.912a2.727,2.727,0,0,0-2.718-2.718ZM16.305,17.14A1.362,1.362,0,0,1,14.947,18.5H2.718a1.363,1.363,0,0,1-1.36-1.358V4.911a1.364,1.364,0,0,1,1.36-1.359H14.947a1.363,1.363,0,0,1,1.358,1.359V17.138Zm-3.4-10.87H7.474a.68.68,0,1,0,0,1.359h5.435a.68.68,0,0,0,0-1.359Zm0,4.076H7.474a.68.68,0,1,0,0,1.359h5.435a.68.68,0,0,0,0-1.359Zm0,4.076H7.474a.68.68,0,1,0,0,1.359h5.435a.68.68,0,0,0,0-1.359Z" transform="translate(0 -2.194)"/>
  <path id="xiangqing-2" data-name="xiangqing" class="cls-2" d="M14.947,2.194H2.718A2.725,2.725,0,0,0,0,4.912V17.14a2.725,2.725,0,0,0,2.718,2.716H14.947a2.725,2.725,0,0,0,2.718-2.718V4.912a2.727,2.727,0,0,0-2.718-2.718ZM16.305,17.14A1.362,1.362,0,0,1,14.947,18.5H2.718a1.363,1.363,0,0,1-1.36-1.358V4.911a1.364,1.364,0,0,1,1.36-1.359H14.947a1.363,1.363,0,0,1,1.358,1.359V17.138Z" transform="translate(0 -2.194)"/>
</svg>
