<svg xmlns="http://www.w3.org/2000/svg" width="16.184" height="16.192" viewBox="0 0 16.184 16.192">
  <defs>
    <style>
      .cls-1 {
        fill: #818990;
        stroke: #818990;
        stroke-width: 0.2px;
      }
    </style>
  </defs>
  <g id="_15_分享_normal" data-name="15 分享 normal" transform="translate(0.1 0.129)">
    <path id="路径_1146" data-name="路径 1146" class="cls-1" d="M40.087,33.122a.647.647,0,0,1,1.294,0h0V37.2A3.907,3.907,0,0,1,37.474,41.1H29.325A3.907,3.907,0,0,1,25.418,37.2h0V29.048a3.907,3.907,0,0,1,3.907-3.907H33.4a.647.647,0,1,1,0,1.294H29.325a2.613,2.613,0,0,0-2.613,2.613h0V37.2a2.613,2.613,0,0,0,2.613,2.613h8.149A2.613,2.613,0,0,0,40.087,37.2Zm0-6.687H36.659a.647.647,0,1,1,0-1.294h4.074a.647.647,0,0,1,.647.647h0v4.075a.647.647,0,1,1-1.294,0h0Z" transform="translate(-25.418 -25.141)"/>
    <path id="路径_1147" data-name="路径 1147" class="cls-1" d="M72.988,33.7a.65.65,0,0,1-.919-.919l7.366-7.366a.65.65,0,0,1,.919.919Z" transform="translate(-64.582 -25.227)"/>
  </g>
</svg>
