<svg xmlns="http://www.w3.org/2000/svg" width="16.693" height="17.197" viewBox="0 0 16.693 17.197">
  <defs>
    <style>
      .cls-1 {
        fill: #818990;
        stroke: #fff;
        stroke-width: 0.2px;
      }
    </style>
  </defs>
  <g id="_24_删除_normal" data-name="24 删除 normal" transform="translate(0.1 0.1)">
    <path id="路径_1111" data-name="路径 1111" class="cls-1" d="M14.448,4.844a.762.762,0,0,0-.85.595,3.187,3.187,0,0,0-.085.935v7.394c0,1.275-.17,1.445-1.53,1.53H4.164c-.765,0-1.02-.255-1.1-1.1V6.119c0-.85-.255-1.275-.85-1.275s-.85.34-.85,1.275v8.414c0,1.615.85,2.38,2.465,2.465h8.754c1.87,0,2.635-.765,2.635-2.635V6.374a2.891,2.891,0,0,0-.085-.85A.67.67,0,0,0,14.448,4.844Zm1.19-3.06a11.137,11.137,0,0,0-2.38,0A2.537,2.537,0,0,1,11.048.85,1.749,1.749,0,0,0,9.434,0H7.224a2.076,2.076,0,0,0-1.87.85,1.993,1.993,0,0,1-1.87.85H1.53a1.871,1.871,0,0,0-.68.085.911.911,0,0,0-.85.85.8.8,0,0,0,.85.85h3.23a1.993,1.993,0,0,0,1.87-.85,1.837,1.837,0,0,1,1.87-.85h1.1a1.426,1.426,0,0,1,1.19.51,2.837,2.837,0,0,0,2.8,1.19h2.635a.935.935,0,0,0,.85-.51.81.81,0,0,0-.765-1.19Z"/>
    <path id="路径_1112" data-name="路径 1112" class="cls-1" d="M316.363,319.162a.833.833,0,0,0,.777.778.767.767,0,0,0,.777-.7v-5.52a2.645,2.645,0,0,0-.078-.777.747.747,0,0,0-.7-.544.625.625,0,0,0-.7.466,2.4,2.4,0,0,0-.078.778v4.976A.657.657,0,0,0,316.363,319.162Zm-3.266.7a.757.757,0,0,0,.777-.622,1.932,1.932,0,0,0,.078-.622V313.1a.848.848,0,0,0-.855-.778.767.767,0,0,0-.778.7v5.6a1.516,1.516,0,0,0,.078.622A.681.681,0,0,0,313.1,319.862Z" transform="translate(-306.875 -306.781)"/>
  </g>
</svg>
