<svg id="_22_创建副本_normal" data-name="22 创建副本 normal" xmlns="http://www.w3.org/2000/svg" width="16.863" height="16.863" viewBox="0 0 16.863 16.863">
  <defs>
    <style>
      .cls-1 {
        fill: #818990;
      }
    </style>
  </defs>
  <path id="路径_1265" data-name="路径 1265" class="cls-1" d="M73.514,226.52h-9.42A2.093,2.093,0,0,0,62,228.613v9.42a2.093,2.093,0,0,0,2.093,2.093h9.42a2.093,2.093,0,0,0,2.093-2.093v-9.42A2.093,2.093,0,0,0,73.514,226.52Zm1.047,11.514a1.047,1.047,0,0,1-1.047,1.047h-9.42a1.048,1.048,0,0,1-1.047-1.047v-9.42a1.048,1.048,0,0,1,1.047-1.047h9.42a1.047,1.047,0,0,1,1.047,1.047Z" transform="translate(-62 -223.264)"/>
  <path id="路径_1266" data-name="路径 1266" class="cls-1" d="M226.52,401.755h7.341v-1.049H226.52v1.049Zm0,2.1h7.341V402.8H226.52v1.049Zm0,2.1h7.341V404.9H226.52v1.049Zm0,2.1h4.195V407H226.52v1.049Z" transform="translate(-223.407 -394.297)"/>
  <path id="路径_1267" data-name="路径 1267" class="cls-1" d="M238.034,62h-9.42a2.093,2.093,0,0,0-2.093,2.093h1.047a1.048,1.048,0,0,1,1.047-1.047h9.42a1.047,1.047,0,0,1,1.047,1.047v9.42a1.047,1.047,0,0,1-1.047,1.047v1.047a2.093,2.093,0,0,0,2.093-2.093v-9.42A2.093,2.093,0,0,0,238.034,62Z" transform="translate(-223.264 -62)"/>
</svg>
